131d92cc9349ab808cf60dd0c9ed8df6 *tests/data/fate/pcm_dvd-24-5.1-48000.vob
2519040 tests/data/fate/pcm_dvd-24-5.1-48000.vob
#tb 0: 1/48000
#media_type 0: audio
#codec_id 0: pcm_s24le
#sample_rate 0: 48000
#channel_layout_name 0: 5.1
0,          0,          0,      108,     1944, 0xd474b1dc
0,        112,        112,      112,     2016, 0x7b1a40cc
0,        224,        224,      112,     2016, 0xa5be1eff
0,        336,        336,      108,     1944, 0x8e889bbf
0,        448,        448,      112,     2016, 0x64de154d
0,        560,        560,      112,     2016, 0xd0d98f35
0,        672,        672,      112,     2016, 0xa607ff3b
0,        784,        784,      108,     1944, 0x3e32521e
0,        896,        896,      112,     2016, 0xc278e708
0,       1008,       1008,      112,     2016, 0x6228e57a
0,       1120,       1120,      112,     2016, 0xa0fbd56d
0,       1232,       1232,      108,     1944, 0xefa5d55c
0,       1344,       1344,      112,     2016, 0x309900c8
0,       1456,       1456,      112,     2016, 0x65d5154a
0,       1568,       1568,      112,     2016, 0x7a6777fd
0,       1680,       1680,      108,     1944, 0xeef5828c
0,       1792,       1792,      112,     2016, 0x05e2fe81
0,       1904,       1904,      112,     2016, 0xaf4a5c67
0,       2016,       2016,      112,     2016, 0xd881cccd
0,       2128,       2128,      108,     1944, 0xba7358a5
0,       2240,       2240,      112,     2016, 0x0341f0d2
0,       2352,       2352,      112,     2016, 0x0d5e2642
0,       2464,       2464,      112,     2016, 0xc3442415
0,       2576,       2576,      108,     1944, 0x04e23fa2
0,       2688,       2688,      112,     2016, 0xbe5d297d
0,       2800,       2800,      112,     2016, 0x36bee2ef
0,       2912,       2912,      112,     2016, 0x5b1fa6bf
0,       2996,       2996,      108,     1944, 0x842993a2
0,       3108,       3108,      112,     2016, 0xad60830b
0,       3220,       3220,      112,     2016, 0x59de6600
0,       3332,       3332,      112,     2016, 0xbf6f32f0
0,       3444,       3444,      108,     1944, 0x7a2d1b23
0,       3556,       3556,      112,     2016, 0x05755245
0,       3668,       3668,      112,     2016, 0x6f048e4b
0,       3780,       3780,      112,     2016, 0xbddb7141
0,       3892,       3892,      108,     1944, 0x27f927c3
0,       4004,       4004,      112,     2016, 0x1b72043a
0,       4116,       4116,      112,     2016, 0x8196613d
0,       4228,       4228,      112,     2016, 0x582803ae
0,       4340,       4340,      108,     1944, 0xe61b8fef
0,       4452,       4452,      112,     2016, 0xd6c793ac
0,       4564,       4564,      112,     2016, 0x9cd216a8
0,       4676,       4676,      108,     1944, 0x0329923f
0,       4788,       4788,      112,     2016, 0x389e4741
0,       4900,       4900,      112,     2016, 0x257b7c1c
0,       5012,       5012,      112,     2016, 0xbd6af710
0,       5124,       5124,      108,     1944, 0x1b1a08cd
0,       5236,       5236,      112,     2016, 0x7c1c56ab
0,       5348,       5348,      112,     2016, 0x8dd343a2
0,       5460,       5460,      112,     2016, 0xedef5b90
0,       5572,       5572,      108,     1944, 0x1cb19fa5
0,       5684,       5684,      112,     2016, 0x7262409f
0,       5796,       5796,      112,     2016, 0x39fb2f0c
0,       5908,       5908,      112,     2016, 0xfc2e6c94
0,       5992,       5992,      108,     1944, 0x5ebd2dc3
0,       6104,       6104,      112,     2016, 0x545aa3cf
0,       6216,       6216,      112,     2016, 0x2ccdb39d
0,       6328,       6328,      112,     2016, 0x1fd639a5
0,       6440,       6440,      108,     1944, 0x0788a815
0,       6552,       6552,      112,     2016, 0xe904c713
0,       6664,       6664,      112,     2016, 0x2451eb77
0,       6776,       6776,      112,     2016, 0x9cf3d1bf
0,       6888,       6888,      108,     1944, 0x25983223
0,       7000,       7000,      112,     2016, 0x4e426817
0,       7112,       7112,      112,     2016, 0x386fe97d
0,       7224,       7224,      112,     2016, 0x20ed0d8d
0,       7336,       7336,      108,     1944, 0xbc097653
0,       7448,       7448,      112,     2016, 0x6211057e
0,       7560,       7560,      112,     2016, 0x0a0825f3
0,       7672,       7672,      112,     2016, 0x377e6144
0,       7784,       7784,      108,     1944, 0xd163ff87
0,       7896,       7896,      112,     2016, 0xde483afa
0,       8008,       8008,      112,     2016, 0x8b80471f
0,       8120,       8120,      112,     2016, 0x35f27a6d
0,       8232,       8232,      108,     1944, 0xaa224460
0,       8344,       8344,      112,     2016, 0xda986b7e
0,       8456,       8456,      112,     2016, 0xea5058a6
0,       8568,       8568,      112,     2016, 0x74be6ed0
0,       8680,       8680,      108,     1944, 0x0526c60e
0,       8792,       8792,      112,     2016, 0x953f6390
0,       8904,       8904,      112,     2016, 0xc9cc0d3a
0,       8988,       8988,      108,     1944, 0xef0bc41e
0,       9100,       9100,      112,     2016, 0x2bcb9fff
0,       9212,       9212,      112,     2016, 0x21a51ee9
0,       9324,       9324,      112,     2016, 0x6cd1f18b
0,       9436,       9436,      108,     1944, 0x40e849a9
0,       9548,       9548,       52,      936, 0xd668ccc3
